<?xml version="1.0" standalone="no"?>
<!DOCTYPE svg PUBLIC "-//W3C//DTD SVG 20010904//EN"
 "http://www.w3.org/TR/2001/REC-SVG-20010904/DTD/svg10.dtd">
<svg version="1.0" xmlns="http://www.w3.org/2000/svg"
 width="1068.000000pt" height="1068.000000pt" viewBox="0 0 1068.000000 1068.000000"
 preserveAspectRatio="xMidYMid meet">
<metadata>
Created by potrace 1.14, written by Peter Selinger 2001-2017
</metadata>
<g transform="translate(0.000000,1068.000000) scale(0.100000,-0.100000)"
fill="#000000" stroke="none">
<path d="M6986 9523 c-4 -4 -66 -8 -139 -9 -142 -2 -264 -12 -367 -30 -38 -7
-74 -12 -135 -19 -78 -9 -278 -40 -395 -61 -40 -7 -83 -14 -115 -19 -16 -2
-47 -9 -67 -14 -20 -5 -39 -6 -42 -3 -3 2 -12 0 -19 -6 -8 -7 -16 -10 -18 -7
-3 2 -23 -1 -45 -7 -21 -6 -50 -12 -64 -14 -14 -1 -35 -5 -47 -8 -13 -3 -33
-8 -45 -11 -136 -29 -137 -29 -158 -38 -8 -3 -26 -8 -40 -10 -20 -4 -94 -24
-185 -51 -5 -1 -30 -8 -55 -15 -38 -11 -162 -51 -210 -69 -8 -3 -22 -6 -30 -8
-8 -2 -23 -7 -35 -12 -27 -13 -88 -36 -100 -38 -5 -1 -59 -21 -120 -44 -100
-38 -141 -55 -200 -80 -11 -5 -74 -32 -140 -61 -66 -28 -124 -55 -129 -60 -6
-5 -18 -9 -28 -9 -10 0 -18 -5 -18 -11 0 -6 -6 -9 -14 -6 -8 3 -16 3 -18 -1
-2 -5 -49 -31 -105 -59 -93 -47 -192 -106 -230 -136 -37 -30 -136 -134 -148
-157 -58 -106 -63 -163 -18 -205 28 -25 28 -25 168 -19 201 7 205 8 205 14 0
3 19 6 43 7 44 1 114 9 157 17 14 3 48 8 75 12 28 3 59 8 70 9 11 2 43 6 70
10 28 4 58 9 69 11 10 2 44 6 75 10 31 3 64 8 75 10 10 2 44 6 75 10 31 4 70
8 86 10 17 2 53 6 80 9 28 2 68 7 90 10 22 3 70 7 107 10 37 3 89 7 115 10 26
2 76 5 111 6 34 1 65 5 68 10 2 4 15 4 27 0 12 -5 33 -5 47 -2 66 17 546 1
705 -24 22 -3 51 -8 65 -10 14 -1 25 -4 25 -5 0 -1 16 -3 35 -6 19 -2 38 -8
43 -13 5 -5 15 -7 21 -5 6 2 49 -9 96 -25 128 -44 154 -55 168 -68 7 -7 17
-13 22 -13 31 0 164 -114 298 -253 51 -53 50 -45 38 -217 -10 -155 -19 -298
-20 -340 -1 -25 -4 -50 -7 -55 -3 -6 -5 -29 -5 -52 1 -24 -2 -43 -5 -43 -3 0
-5 -10 -4 -22 1 -12 -2 -43 -7 -68 -5 -25 -11 -63 -14 -85 -2 -22 -9 -56 -14
-75 -16 -61 -63 -264 -64 -280 0 -8 -3 -17 -6 -20 -3 -3 -12 -30 -19 -60 -8
-30 -18 -66 -24 -80 -6 -14 -11 -31 -13 -37 -1 -7 -17 -59 -35 -115 -18 -57
-34 -105 -34 -108 -3 -17 -38 -118 -46 -134 -6 -10 -12 -28 -15 -40 -2 -11 -8
-30 -13 -41 -8 -19 -79 -208 -85 -230 -2 -5 -6 -17 -9 -25 -3 -8 -15 -42 -26
-75 -12 -33 -26 -69 -31 -80 -5 -11 -19 -49 -31 -85 -12 -36 -26 -69 -29 -75
-4 -5 -11 -21 -15 -35 -6 -20 -96 -254 -140 -365 -5 -11 -9 -22 -10 -25 -1 -3
-7 -18 -14 -35 -6 -16 -16 -43 -22 -60 -6 -16 -20 -49 -30 -72 -11 -24 -19
-46 -19 -51 0 -5 -9 -27 -20 -50 -11 -22 -20 -46 -20 -52 0 -5 -4 -18 -10 -28
-5 -9 -30 -71 -55 -137 -25 -66 -53 -136 -62 -155 -9 -19 -16 -37 -16 -40 1
-6 -30 -88 -51 -135 -7 -16 -23 -59 -36 -95 -13 -36 -27 -69 -32 -75 -4 -5 -8
-19 -8 -31 0 -13 -5 -26 -10 -29 -6 -4 -8 -11 -5 -16 4 -5 1 -9 -4 -9 -6 0
-10 -3 -10 -7 1 -5 0 -10 -1 -13 -1 -3 -3 -12 -5 -20 -2 -8 -29 -82 -60 -165
-94 -250 -115 -310 -115 -327 0 -9 -4 -19 -9 -22 -5 -3 -12 -23 -16 -43 -4
-21 -10 -42 -14 -48 -5 -5 -20 -50 -35 -100 -15 -49 -32 -99 -37 -110 -5 -11
-11 -30 -14 -43 -2 -13 -9 -37 -14 -55 -26 -82 -61 -212 -77 -280 -2 -9 -6
-27 -10 -40 -3 -12 -7 -33 -10 -47 -2 -14 -9 -45 -14 -70 -14 -63 -21 -101
-24 -130 -16 -123 -19 -167 -21 -250 -1 -52 3 -120 7 -150 5 -30 10 -66 12
-80 12 -80 50 -187 94 -265 18 -33 36 -68 39 -77 3 -10 9 -18 14 -18 5 0 9 -7
9 -15 0 -8 4 -15 8 -15 4 0 16 -14 26 -31 18 -31 95 -112 148 -155 74 -62 366
-213 463 -239 17 -5 32 -9 35 -10 8 -2 113 -18 140 -21 14 -2 62 -5 107 -8 45
-2 86 -7 92 -10 5 -4 12 -2 15 3 3 4 23 5 43 2 49 -9 1257 -5 1478 4 94 4 198
8 232 9 35 0 63 3 63 6 0 3 19 5 43 6 42 1 141 10 187 18 14 3 43 7 65 10 22
3 49 7 60 9 82 17 101 20 110 22 23 5 130 29 135 30 49 12 69 16 90 21 30 6
40 9 60 17 13 4 34 10 85 23 6 1 55 17 110 35 55 18 102 33 105 34 3 1 22 9
44 18 21 9 42 17 47 17 8 0 61 23 189 83 36 17 68 30 73 29 4 -1 7 2 7 6 0 10
50 37 63 34 4 -1 7 2 7 7 0 5 9 13 20 16 30 9 168 115 219 166 56 57 108 133
115 169 1 3 4 10 7 15 3 6 7 36 8 68 3 76 -22 117 -87 145 -67 28 -100 36
-227 57 -28 4 -46 6 -170 20 -27 3 -61 8 -75 10 -14 2 -45 6 -70 10 -160 21
-273 90 -324 196 -36 78 -48 139 -50 275 -3 159 8 278 49 524 8 47 17 102 21
124 3 21 8 48 10 60 3 11 9 44 14 71 6 28 12 60 15 72 12 56 25 119 39 188 3
11 10 43 16 70 6 28 14 61 16 75 3 14 7 33 10 42 3 9 6 25 8 35 2 10 15 61 27
113 13 52 23 103 21 113 -1 9 3 17 8 17 6 0 10 9 10 20 0 23 46 221 60 260 5
14 12 41 15 60 3 19 15 65 25 101 11 36 21 79 23 95 2 17 6 35 10 40 3 6 8 21
11 35 2 13 16 71 31 129 15 58 29 113 31 123 2 9 6 25 8 35 27 111 48 201 52
217 8 40 13 61 23 93 5 17 8 32 6 32 -3 0 0 12 6 28 6 15 12 36 14 47 5 32 22
111 50 235 33 143 34 147 41 190 3 19 7 37 9 40 2 3 6 25 10 50 4 24 11 52 15
61 5 9 7 19 3 22 -3 4 -1 13 5 20 7 8 10 16 7 19 -3 2 4 44 14 91 10 48 17 87
15 87 -3 0 -1 8 5 18 5 9 12 37 15 62 3 25 8 55 11 68 3 12 7 32 10 45 3 12 7
40 10 62 2 22 7 51 10 65 7 31 17 107 18 138 1 12 3 22 7 22 3 0 5 19 6 43 0
23 4 71 8 107 25 247 27 700 2 830 -7 41 -18 113 -21 145 -1 17 -5 37 -7 45
-3 8 -19 67 -36 130 -17 63 -36 129 -43 145 -7 17 -13 32 -14 35 -26 78 -131
274 -167 312 -10 10 -15 18 -12 18 11 0 -69 93 -151 176 -107 109 -185 168
-370 281 -51 32 -95 53 -95 46 0 -5 -4 -3 -8 3 -7 10 -33 23 -127 63 -27 12
-58 26 -68 32 -10 5 -22 7 -27 4 -6 -4 -10 -3 -10 2 0 4 -35 19 -78 33 -42 13
-81 27 -87 31 -15 10 -254 67 -310 74 -27 3 -70 8 -95 10 -25 3 -61 7 -80 11
-19 3 -62 8 -95 11 -33 2 -82 6 -110 8 -238 20 -511 34 -765 39 -80 1 -151 5
-157 9 -5 3 -13 3 -17 0z"/>
<path d="M6027 7814 c-1 -2 -18 -6 -37 -9 -19 -3 -64 -15 -100 -26 -36 -12
-69 -22 -75 -24 -5 -1 -23 -8 -40 -15 -16 -7 -35 -14 -40 -15 -6 -2 -45 -19
-88 -39 -42 -20 -80 -36 -83 -36 -4 1 -10 -2 -13 -7 -3 -4 -26 -18 -51 -30
-77 -38 -174 -91 -186 -102 -7 -5 -34 -21 -60 -36 -27 -14 -67 -37 -89 -51
-22 -14 -48 -27 -57 -31 -10 -3 -18 -9 -18 -13 0 -4 -11 -12 -25 -18 -37 -17
-379 -243 -383 -253 -2 -5 -8 -9 -13 -9 -9 0 -61 -34 -84 -55 -7 -5 -33 -23
-58 -39 -26 -17 -47 -34 -47 -38 0 -4 -5 -8 -10 -8 -10 0 -109 -70 -138 -97
-7 -7 -16 -13 -20 -13 -4 0 -20 -11 -37 -25 -44 -36 -47 -38 -85 -65 -19 -13
-37 -27 -40 -30 -3 -3 -21 -17 -40 -30 -19 -13 -44 -32 -55 -42 -11 -9 -67
-54 -125 -100 -58 -45 -116 -93 -130 -105 -14 -13 -28 -23 -31 -23 -3 0 -19
-12 -36 -27 -16 -16 -54 -48 -83 -73 -29 -25 -61 -52 -72 -62 -10 -9 -36 -30
-58 -48 -21 -17 -52 -43 -68 -58 -16 -15 -74 -67 -128 -117 -231 -210 -904
-881 -904 -900 0 -2 -17 -21 -37 -42 -63 -65 -207 -226 -328 -368 -33 -38 -64
-75 -70 -81 -5 -6 -22 -26 -37 -45 -14 -19 -36 -45 -48 -59 -12 -14 -31 -38
-43 -53 -12 -16 -27 -34 -33 -40 -6 -7 -26 -32 -45 -57 -19 -25 -42 -54 -51
-65 -18 -21 -92 -118 -120 -157 -60 -83 -121 -166 -133 -180 -8 -10 -12 -18
-9 -18 3 0 -1 -7 -8 -15 -7 -8 -18 -20 -23 -27 -11 -14 -123 -182 -140 -209
-5 -9 -36 -59 -68 -110 -32 -52 -62 -101 -67 -109 -58 -93 -245 -448 -242
-457 0 -1 -14 -33 -32 -70 -18 -37 -37 -79 -41 -93 -4 -14 -11 -29 -15 -35 -3
-5 -14 -32 -24 -60 -10 -27 -20 -57 -23 -65 -4 -8 -5 -18 -5 -23 1 -4 -2 -7
-8 -7 -6 0 -9 -3 -9 -7 1 -5 0 -11 -1 -15 -1 -5 -3 -11 -4 -15 -2 -5 -9 -28
-16 -53 -7 -25 -14 -47 -15 -50 -1 -3 -11 -36 -23 -75 -21 -69 -60 -236 -67
-285 -2 -14 -6 -40 -9 -57 -3 -18 -8 -46 -11 -62 -24 -142 -20 -316 10 -424
47 -169 268 -321 478 -330 26 -1 47 -4 47 -7 0 -3 166 -6 370 -5 203 0 370 2
370 5 0 10 95 5 102 -5 5 -7 8 -7 8 0 0 6 35 10 83 11 102 1 332 13 384 19 21
3 56 7 78 10 146 16 308 86 407 175 45 41 58 91 52 210 -5 114 -16 398 -17
458 -1 28 -5 52 -10 52 -5 0 -5 6 2 13 6 8 8 24 5 38 -9 45 -12 734 -2 809 10
80 15 115 19 115 1 0 3 9 4 20 6 50 59 214 91 284 9 18 18 41 19 50 2 9 4 18
5 21 1 3 2 8 1 13 0 4 4 7 9 7 6 0 10 7 10 16 0 9 6 28 14 42 8 15 31 70 51
122 21 52 43 109 51 125 7 17 23 56 34 88 12 31 24 58 28 58 20 4 54 8 117 13
39 4 86 8 105 11 57 7 184 18 345 30 33 2 60 5 60 5 0 4 152 20 212 23 18 1
33 4 33 7 0 3 12 5 28 6 54 1 133 13 300 46 57 11 115 21 130 23 15 2 27 4 27
5 0 1 7 3 15 5 39 8 69 15 110 26 25 6 53 13 63 15 36 8 55 14 157 43 58 17
112 34 120 38 8 3 18 7 23 8 4 2 10 4 15 5 4 1 10 2 15 1 4 0 7 3 7 7 0 4 8 8
18 9 9 1 40 12 67 24 28 13 52 23 55 24 3 0 30 14 60 31 68 39 118 86 126 119
3 14 9 25 13 25 7 0 7 123 0 149 -7 25 -42 61 -59 61 -9 0 -20 3 -24 7 -7 8
-47 13 -128 16 -27 1 -48 6 -48 11 0 5 -6 3 -13 -3 -8 -6 -17 -8 -20 -5 -6 7
-256 15 -522 17 -76 1 -133 6 -137 12 -5 6 -8 7 -8 0 0 -10 -107 -12 -117 -1
-3 3 -13 1 -23 -4 -10 -5 -20 -7 -23 -4 -3 3 -59 7 -124 9 -149 4 -342 15
-368 20 -11 2 -32 4 -47 4 -17 1 -28 7 -28 15 0 23 199 305 222 314 4 2 8 10
8 17 0 8 6 18 13 22 6 4 25 27 41 51 16 23 33 42 37 42 5 0 9 6 9 14 0 8 4 16
8 18 4 2 26 26 47 54 53 67 196 246 210 260 5 6 24 28 40 50 17 21 39 48 50
60 11 13 31 37 45 54 14 17 33 41 43 53 69 81 103 122 112 131 6 6 32 38 60
71 27 33 64 76 82 95 17 19 44 49 58 65 166 185 553 578 709 720 49 44 103 94
121 110 50 46 68 60 225 186 207 165 274 243 285 334 7 54 -26 110 -88 150
-23 15 -149 30 -160 19z"/>
</g>
</svg>
